<?xml version="1.0" encoding="UTF-8"?>
<svg viewBox="0 0 1897 703" version="1.1" xmlns="http://www.w3.org/2000/svg" xmlns:xlink="http://www.w3.org/1999/xlink">
    <!-- Generator: Sketch 53.2 (72643) - https://sketchapp.com -->
    <title>exchange-chain</title>
    <desc>Created with Sketch.</desc>
    <defs>
        <linearGradient x1="50.1841971%" y1="89.5933884%" x2="48.11619%" y2="12.9220782%" id="linearGradient-1">
            <stop stop-color="#797585" offset="4.83871%"></stop>
            <stop stop-color="#95919F" offset="100%"></stop>
        </linearGradient>
        <linearGradient x1="50.8421765%" y1="57.7216725%" x2="44.5007782%" y2="-1.17144778%" id="linearGradient-2">
            <stop stop-color="#282530" offset="0.806452%"></stop>
            <stop stop-color="#3A3842" offset="93.75%"></stop>
        </linearGradient>
    </defs>
    <g id="exchange-chain" stroke="none" stroke-width="1" fill="none" fill-rule="evenodd">
        <g id="Group-2" transform="translate(60.966844, 54.000000)">
            <g id="Group" transform="translate(826.033156, 0.000000)">
                <g id="conveyor">
                    <g id="Conveyor" transform="translate(504.000000, 71.000000)" stroke="#282530" stroke-linecap="round" stroke-linejoin="round">
                        <polygon id="Path" stroke-width="4" fill="#F0EFF4" points="269.11 27.303 105.764 68.916 0.703 42.415 165.176 0.534"></polygon>
                        <polygon id="Path" stroke-width="3" fill="#282530" points="106.387 68.789 107.037 76.815 269.05 33.806 269.05 27.909"></polygon>
                    </g>
                    <g id="Conveyor_2" transform="translate(339.000000, 113.000000)">
                        <polygon id="Path" stroke="#282530" stroke-width="4" fill="#F0EFF4" stroke-linecap="round" stroke-linejoin="round" points="269.337 27.383 105.992 68.997 0.931 42.495 165.404 0.614"></polygon>
                        <polygon id="Path" stroke="#282530" stroke-width="3" fill="#282530" stroke-linecap="round" stroke-linejoin="round" points="108.594 68.316 108.594 75.222 270.809 35.11 270.809 27.898"></polygon>
                        <path d="M269.489,30.916 C269.265,28.93 270.191,27.196 271.557,27.041 C272.924,26.887 274.213,28.371 274.437,30.357 C274.662,32.342 273.736,34.077 272.369,34.231 C271.003,34.386 269.713,32.901 269.489,30.916 Z" id="Path" fill="#F0EFF4"></path>
                    </g>
                    <g id="Layer-1" transform="translate(152.000000, 0.000000)">
                        <polygon id="Path" stroke="#282530" stroke-width="6" fill="url(#linearGradient-1)" stroke-linecap="round" stroke-linejoin="round" points="138.278 77.753 296.103 41.205 296.103 217.858 138.278 254.406"></polygon>
                        <polygon id="Path" stroke="#282530" stroke-width="6" fill="#EBE9F0" stroke-linecap="round" stroke-linejoin="round" points="138.832 254.96 0.389 215.089 0.389 38.989 138.278 77.602"></polygon>
                        <polygon id="Path" stroke="#282530" stroke-width="6" fill="#EBE9F0" stroke-linecap="round" stroke-linejoin="round" points="138.832 254.96 0.389 215.089 0.389 38.989 138.278 77.602"></polygon>
                        <polygon id="Path" stroke="#282530" stroke-width="6" fill="#F0EEF3" stroke-linecap="round" stroke-linejoin="round" points="293.793 41.205 159.322 0.399 0.139 38.989 138.278 77.954"></polygon>
                        <path d="M14.113,219.118 C14.113,219.118 14.09,125.865 14.113,105.56 C14.126,94.154 19.417,91.921 27.902,93.818 C49.017,98.539 80.409,107 105.867,112.53 C116.63,114.868 121.721,122.659 121.766,131.937 C121.89,157.934 121.766,250.497 121.766,250.497 L14.113,219.118 Z" id="Path" fill="url(#linearGradient-2)"></path>
                        <polygon id="Path" stroke="#282530" stroke-width="4" fill="#F0EFF4" stroke-linecap="round" stroke-linejoin="round" points="119.163 226.022 15.181 197.727 119.163 171.857"></polygon>
                    </g>
                    <g id="Conveyor_3" transform="translate(0.000000, 197.000000)" stroke="#282530" stroke-linecap="round" stroke-linejoin="round">
                        <polygon id="Path" stroke-width="4" fill="#F0EFF4" points="270.036 27.497 106.691 69.11 1.63 42.608 166.103 0.727"></polygon>
                        <polygon id="Path" stroke-width="3" fill="#282530" points="106.4 69.11 106.4 76.346 263.738 34.919 263.738 29.022"></polygon>
                        <polygon id="Path" stroke-width="3" fill="#282530" points="106.84 76.346 0.911 50.364 0.911 42.505 106.966 68.924"></polygon>
                    </g>
                </g>
                <g id="conveyor" transform="translate(171.033156, 53.000000)">
                    <g id="Conveyor" transform="translate(504.000000, 71.000000)" stroke="#282530" stroke-linecap="round" stroke-linejoin="round">
                        <polygon id="Path" stroke-width="4" fill="#F0EFF4" points="269.11 27.303 105.764 68.916 0.703 42.415 165.176 0.534"></polygon>
                        <polygon id="Path" stroke-width="3" fill="#282530" points="106.387 68.789 107.037 76.815 269.05 33.806 269.05 27.909"></polygon>
                    </g>
                    <g id="Conveyor_2" transform="translate(339.000000, 113.000000)">
                        <polygon id="Path" stroke="#282530" stroke-width="4" fill="#F0EFF4" stroke-linecap="round" stroke-linejoin="round" points="269.337 27.383 105.992 68.997 0.931 42.495 165.404 0.614"></polygon>
                        <polygon id="Path" stroke="#282530" stroke-width="3" fill="#282530" stroke-linecap="round" stroke-linejoin="round" points="108.594 68.316 108.594 75.222 270.809 35.11 270.809 27.898"></polygon>
                        <path d="M269.489,30.916 C269.265,28.93 270.191,27.196 271.557,27.041 C272.924,26.887 274.213,28.371 274.437,30.357 C274.662,32.342 273.736,34.077 272.369,34.231 C271.003,34.386 269.713,32.901 269.489,30.916 Z" id="Path" fill="#F0EFF4"></path>
                    </g>
                    <g id="Layer-1" transform="translate(152.000000, 0.000000)">
                        <polygon id="Path" stroke="#282530" stroke-width="6" fill="url(#linearGradient-1)" stroke-linecap="round" stroke-linejoin="round" points="138.278 77.753 296.103 41.205 296.103 217.858 138.278 254.406"></polygon>
                        <polygon id="Path" stroke="#282530" stroke-width="6" fill="#EBE9F0" stroke-linecap="round" stroke-linejoin="round" points="138.832 254.96 0.389 215.089 0.389 38.989 138.278 77.602"></polygon>
                        <polygon id="Path" stroke="#282530" stroke-width="6" fill="#EBE9F0" stroke-linecap="round" stroke-linejoin="round" points="138.832 254.96 0.389 215.089 0.389 38.989 138.278 77.602"></polygon>
                        <polygon id="Path" stroke="#282530" stroke-width="6" fill="#F0EEF3" stroke-linecap="round" stroke-linejoin="round" points="293.793 41.205 159.322 0.399 0.139 38.989 138.278 77.954"></polygon>
                        <path d="M14.113,219.118 C14.113,219.118 14.09,125.865 14.113,105.56 C14.126,94.154 19.417,91.921 27.902,93.818 C49.017,98.539 80.409,107 105.867,112.53 C116.63,114.868 121.721,122.659 121.766,131.937 C121.89,157.934 121.766,250.497 121.766,250.497 L14.113,219.118 Z" id="Path" fill="url(#linearGradient-2)"></path>
                        <polygon id="Path" stroke="#282530" stroke-width="4" fill="#F0EFF4" stroke-linecap="round" stroke-linejoin="round" points="119.163 226.022 15.181 197.727 119.163 171.857"></polygon>
                    </g>
                    <g id="Conveyor_3" transform="translate(0.000000, 197.000000)" stroke="#282530" stroke-linecap="round" stroke-linejoin="round">
                        <polygon id="Path" stroke-width="4" fill="#F0EFF4" points="270.036 27.497 106.691 69.11 1.63 42.608 166.103 0.727"></polygon>
                        <polygon id="Path" stroke-width="3" fill="#282530" points="106.4 69.11 106.4 76.346 263.738 34.919 263.738 29.022"></polygon>
                        <polygon id="Path" stroke-width="3" fill="#282530" points="106.84 76.346 0.911 50.364 0.911 42.505 106.966 68.924"></polygon>
                    </g>
                </g>
            </g>
            <path id="Line" d="M887.160634,178.877637 C886.906203,180.166392 885.933346,181.25767 884.574521,181.597376 L872.932811,184.507804 C871.057529,184.976624 869.157258,183.836462 868.688437,181.96118 C868.219617,180.085898 869.359779,178.185627 871.235061,177.716806 L882.876771,174.806379 C884.235597,174.466672 885.607542,174.97175 886.438514,175.989154 L882.634362,160.772549 C882.322745,159.52608 883.080592,158.263001 884.327062,157.951384 C884.67744,157.863789 885.0434,157.858975 885.39596,157.937322 L922.882308,166.267621 C924.136544,166.54634 924.927356,167.789045 924.648637,169.043281 C924.539443,169.534657 924.27382,169.977361 923.891639,170.304945 L894.735591,195.295843 C893.760074,196.132 892.291423,196.019027 891.455265,195.043511 C891.220225,194.769297 891.052256,194.444125 890.964662,194.093747 L887.160634,178.877637 Z M663.382031,236.895499 C661.506749,237.364319 659.606478,236.224157 659.137657,234.348875 C658.668837,232.473593 659.808999,230.573322 661.684281,230.104501 L673.325991,227.194074 C675.201274,226.725253 677.101544,227.865416 677.570365,229.740698 C678.039185,231.61598 676.899023,233.516251 675.023741,233.985071 L663.382031,236.895499 Z M686.665451,231.074644 C684.790169,231.543464 682.889898,230.403302 682.421077,228.52802 C681.952257,226.652738 683.092419,224.752467 684.967701,224.283646 L696.609411,221.373219 C698.484694,220.904398 700.384964,222.044561 700.853785,223.919843 C701.322605,225.795125 700.182443,227.695396 698.307161,228.164216 L686.665451,231.074644 Z M709.948871,225.253789 C708.073589,225.722609 706.173318,224.582447 705.704497,222.707165 C705.235677,220.831883 706.375839,218.931612 708.251121,218.462791 L719.892831,215.552364 C721.768114,215.083543 723.668384,216.223706 724.137205,218.098988 C724.606025,219.97427 723.465863,221.874541 721.590581,222.343361 L709.948871,225.253789 Z M733.232291,219.432934 C731.357009,219.901754 729.456738,218.761592 728.987917,216.88631 C728.519097,215.011028 729.659259,213.110757 731.534541,212.641936 L743.176251,209.731509 C745.051534,209.262688 746.951804,210.402851 747.420625,212.278133 C747.889445,214.153415 746.749283,216.053686 744.874001,216.522506 L733.232291,219.432934 Z M756.515711,213.612079 C754.640429,214.080899 752.740158,212.940737 752.271337,211.065455 C751.802517,209.190173 752.942679,207.289902 754.817961,206.821081 L766.459671,203.910654 C768.334954,203.441833 770.235224,204.581996 770.704045,206.457278 C771.172865,208.33256 770.032703,210.232831 768.157421,210.701651 L756.515711,213.612079 Z M779.799131,207.791224 C777.923849,208.260044 776.023578,207.119882 775.554757,205.2446 C775.085937,203.369318 776.226099,201.469047 778.101381,201.000226 L789.743091,198.089799 C791.618374,197.620978 793.518644,198.761141 793.987465,200.636423 C794.456285,202.511705 793.316123,204.411976 791.440841,204.880796 L779.799131,207.791224 Z M803.082551,201.970369 C801.207269,202.439189 799.306998,201.299027 798.838177,199.423745 C798.369357,197.548463 799.509519,195.648192 801.384801,195.179371 L813.026511,192.268944 C814.901794,191.800123 816.802064,192.940286 817.270885,194.815568 C817.739705,196.69085 816.599543,198.591121 814.724261,199.059941 L803.082551,201.970369 Z M826.365971,196.149514 C824.490689,196.618334 822.590418,195.478172 822.121597,193.60289 C821.652777,191.727608 822.792939,189.827337 824.668221,189.358516 L836.309931,186.448089 C838.185214,185.979268 840.085484,187.119431 840.554305,188.994713 C841.023125,190.869995 839.882963,192.770266 838.007681,193.239086 L826.365971,196.149514 Z M849.649391,190.328659 C847.774109,190.797479 845.873838,189.657317 845.405017,187.782035 C844.936197,185.906753 846.076359,184.006482 847.951641,183.537661 L859.593351,180.627234 C861.468634,180.158413 863.368904,181.298576 863.837725,183.173858 C864.306545,185.04914 863.166383,186.949411 861.291101,187.418231 L849.649391,190.328659 Z" fill="#fff" fill-rule="nonzero"></path>
            <g id="Group" transform="translate(0.000000, 166.000000)">
                <g id="conveyor">
                    <g id="Conveyor" transform="translate(666.000000, 71.000000)" stroke="#282530" stroke-linecap="round" stroke-linejoin="round">
                        <polygon id="Path" stroke-width="4" fill="#F0EFF4" points="269.11 27.303 105.764 68.916 0.703 42.415 165.176 0.534"></polygon>
                        <polygon id="Path" stroke-width="3" fill="#282530" points="106.387 68.789 107.037 76.815 269.05 33.806 269.05 27.909"></polygon>
                    </g>
                    <g id="Conveyor_2" transform="translate(501.000000, 113.000000)">
                        <polygon id="Path" stroke="#282530" stroke-width="4" fill="#F0EFF4" stroke-linecap="round" stroke-linejoin="round" points="269.337 27.383 105.992 68.997 0.931 42.495 165.404 0.614"></polygon>
                        <polygon id="Path" stroke="#282530" stroke-width="3" fill="#282530" stroke-linecap="round" stroke-linejoin="round" points="108.594 68.316 108.594 75.222 270.809 35.11 270.809 27.898"></polygon>
                        <path d="M269.489,30.916 C269.265,28.93 270.191,27.196 271.557,27.041 C272.924,26.887 274.213,28.371 274.437,30.357 C274.662,32.342 273.736,34.077 272.369,34.231 C271.003,34.386 269.713,32.901 269.489,30.916 Z" id="Path" fill="#F0EFF4"></path>
                    </g>
                    <g id="Layer-1" transform="translate(314.000000, 0.000000)">
                        <polygon id="Path" stroke="#282530" stroke-width="6" fill="url(#linearGradient-1)" stroke-linecap="round" stroke-linejoin="round" points="138.278 77.753 296.103 41.205 296.103 217.858 138.278 254.406"></polygon>
                        <polygon id="Path" stroke="#282530" stroke-width="6" fill="#EBE9F0" stroke-linecap="round" stroke-linejoin="round" points="138.832 254.96 0.389 215.089 0.389 38.989 138.278 77.602"></polygon>
                        <polygon id="Path" stroke="#282530" stroke-width="6" fill="#EBE9F0" stroke-linecap="round" stroke-linejoin="round" points="138.832 254.96 0.389 215.089 0.389 38.989 138.278 77.602"></polygon>
                        <polygon id="Path" stroke="#282530" stroke-width="6" fill="#F0EEF3" stroke-linecap="round" stroke-linejoin="round" points="293.793 41.205 159.322 0.399 0.139 38.989 138.278 77.954"></polygon>
                        <path d="M14.113,219.118 C14.113,219.118 14.09,125.865 14.113,105.56 C14.126,94.154 19.417,91.921 27.902,93.818 C49.017,98.539 80.409,107 105.867,112.53 C116.63,114.868 121.721,122.659 121.766,131.937 C121.89,157.934 121.766,250.497 121.766,250.497 L14.113,219.118 Z" id="Path" fill="url(#linearGradient-2)"></path>
                        <polygon id="Path" stroke="#282530" stroke-width="4" fill="#F0EFF4" stroke-linecap="round" stroke-linejoin="round" points="119.163 226.022 15.181 197.727 119.163 171.857"></polygon>
                    </g>
                    <g id="Conveyor_3" transform="translate(162.000000, 197.000000)">
                        <polygon id="Path" stroke="#282530" stroke-width="4" fill="#F0EFF4" stroke-linecap="round" stroke-linejoin="round" points="270.036 27.497 106.691 69.11 1.63 42.608 166.103 0.727"></polygon>
                        <polygon id="Path" stroke="#282530" stroke-width="3" fill="#282530" stroke-linecap="round" stroke-linejoin="round" points="106.4 69.11 106.4 76.346 263.738 34.919 263.738 29.022"></polygon>
                        <polygon id="Path" stroke="#282530" stroke-width="3" fill="#282530" stroke-linecap="round" stroke-linejoin="round" points="106.84 76.346 0.911 50.364 0.911 42.505 106.966 68.924"></polygon>
                        <path d="M104.061,73.008 C103.837,71.022 104.763,69.287 106.13,69.133 C107.496,68.979 108.785,70.463 109.01,72.449 C109.234,74.434 108.308,76.169 106.942,76.323 C105.575,76.478 104.286,74.993 104.061,73.008 Z" id="Path" fill="#F0EFF4"></path>
                    </g>
                    <g id="Conveyor_4" transform="translate(0.000000, 239.000000)">
                        <polygon id="Path" stroke="#282530" stroke-width="4" fill="#F0EFF4" stroke-linecap="round" stroke-linejoin="round" points="268.536 27.275 105.19 68.888 0.13 42.386 164.603 0.505"></polygon>
                        <polygon id="Path" stroke="#282530" stroke-width="3" fill="#282530" stroke-linecap="round" stroke-linejoin="round" points="106.185 67.541 106.185 74.446 268.4 34.334 268.4 27.122"></polygon>
                        <polygon id="Path" stroke="#282530" stroke-width="3" fill="#282530" stroke-linecap="round" stroke-linejoin="round" points="106.185 74.446 0.13 48.453 0.13 40.594 106.185 67.012"></polygon>
                        <path d="M266.061,31.008 C265.837,29.022 266.763,27.287 268.13,27.133 C269.496,26.979 270.785,28.463 271.01,30.449 C271.234,32.434 270.308,34.169 268.942,34.323 C267.575,34.478 266.286,32.993 266.061,31.008 Z" id="Path" fill="#F0EFF4"></path>
                    </g>
                </g>
                <g id="conveyor" transform="translate(171.033156, 53.000000)">
                    <g id="Conveyor" transform="translate(666.000000, 71.000000)" stroke="#282530" stroke-linecap="round" stroke-linejoin="round">
                        <polygon id="Path" stroke-width="4" fill="#F0EFF4" points="269.11 27.303 105.764 68.916 0.703 42.415 165.176 0.534"></polygon>
                        <polygon id="Path" stroke-width="3" fill="#282530" points="106.387 68.789 107.037 76.815 269.05 33.806 269.05 27.909"></polygon>
                    </g>
                    <g id="Conveyor_2" transform="translate(501.000000, 113.000000)">
                        <polygon id="Path" stroke="#282530" stroke-width="4" fill="#F0EFF4" stroke-linecap="round" stroke-linejoin="round" points="269.337 27.383 105.992 68.997 0.931 42.495 165.404 0.614"></polygon>
                        <polygon id="Path" stroke="#282530" stroke-width="3" fill="#282530" stroke-linecap="round" stroke-linejoin="round" points="108.594 68.316 108.594 75.222 270.809 35.11 270.809 27.898"></polygon>
                        <path d="M269.489,30.916 C269.265,28.93 270.191,27.196 271.557,27.041 C272.924,26.887 274.213,28.371 274.437,30.357 C274.662,32.342 273.736,34.077 272.369,34.231 C271.003,34.386 269.713,32.901 269.489,30.916 Z" id="Path" fill="#F0EFF4"></path>
                    </g>
                    <g id="Layer-1" transform="translate(314.000000, 0.000000)">
                        <polygon id="Path" stroke="#282530" stroke-width="6" fill="url(#linearGradient-1)" stroke-linecap="round" stroke-linejoin="round" points="138.278 77.753 296.103 41.205 296.103 217.858 138.278 254.406"></polygon>
                        <polygon id="Path" stroke="#282530" stroke-width="6" fill="#EBE9F0" stroke-linecap="round" stroke-linejoin="round" points="138.832 254.96 0.389 215.089 0.389 38.989 138.278 77.602"></polygon>
                        <polygon id="Path" stroke="#282530" stroke-width="6" fill="#EBE9F0" stroke-linecap="round" stroke-linejoin="round" points="138.832 254.96 0.389 215.089 0.389 38.989 138.278 77.602"></polygon>
                        <polygon id="Path" stroke="#282530" stroke-width="6" fill="#F0EEF3" stroke-linecap="round" stroke-linejoin="round" points="293.793 41.205 159.322 0.399 0.139 38.989 138.278 77.954"></polygon>
                        <path d="M14.113,219.118 C14.113,219.118 14.09,125.865 14.113,105.56 C14.126,94.154 19.417,91.921 27.902,93.818 C49.017,98.539 80.409,107 105.867,112.53 C116.63,114.868 121.721,122.659 121.766,131.937 C121.89,157.934 121.766,250.497 121.766,250.497 L14.113,219.118 Z" id="Path" fill="url(#linearGradient-2)"></path>
                        <polygon id="Path" stroke="#282530" stroke-width="4" fill="#F0EFF4" stroke-linecap="round" stroke-linejoin="round" points="119.163 226.022 15.181 197.727 119.163 171.857"></polygon>
                    </g>
                    <g id="Conveyor_3" transform="translate(162.000000, 197.000000)">
                        <polygon id="Path" stroke="#282530" stroke-width="4" fill="#F0EFF4" stroke-linecap="round" stroke-linejoin="round" points="270.036 27.497 106.691 69.11 1.63 42.608 166.103 0.727"></polygon>
                        <polygon id="Path" stroke="#282530" stroke-width="3" fill="#282530" stroke-linecap="round" stroke-linejoin="round" points="106.4 69.11 106.4 76.346 263.738 34.919 263.738 29.022"></polygon>
                        <polygon id="Path" stroke="#282530" stroke-width="3" fill="#282530" stroke-linecap="round" stroke-linejoin="round" points="106.84 76.346 0.911 50.364 0.911 42.505 106.966 68.924"></polygon>
                        <path d="M104.061,73.008 C103.837,71.022 104.763,69.287 106.13,69.133 C107.496,68.979 108.785,70.463 109.01,72.449 C109.234,74.434 108.308,76.169 106.942,76.323 C105.575,76.478 104.286,74.993 104.061,73.008 Z" id="Path" fill="#F0EFF4"></path>
                    </g>
                    <g id="Conveyor_4" transform="translate(0.000000, 239.000000)">
                        <polygon id="Path" stroke="#282530" stroke-width="4" fill="#F0EFF4" stroke-linecap="round" stroke-linejoin="round" points="268.536 27.275 105.19 68.888 0.13 42.386 164.603 0.505"></polygon>
                        <polygon id="Path" stroke="#282530" stroke-width="3" fill="#282530" stroke-linecap="round" stroke-linejoin="round" points="106.185 67.541 106.185 74.446 268.4 34.334 268.4 27.122"></polygon>
                        <polygon id="Path" stroke="#282530" stroke-width="3" fill="#282530" stroke-linecap="round" stroke-linejoin="round" points="106.185 74.446 0.13 48.453 0.13 40.594 106.185 67.012"></polygon>
                        <path d="M266.061,31.008 C265.837,29.022 266.763,27.287 268.13,27.133 C269.496,26.979 270.785,28.463 271.01,30.449 C271.234,32.434 270.308,34.169 268.942,34.323 C267.575,34.478 266.286,32.993 266.061,31.008 Z" id="Path" fill="#F0EFF4"></path>
                    </g>
                </g>
            </g>
            <path d="M1101.12731,323.008 C1100.90331,321.022 1101.82931,319.287 1103.19631,319.133 C1104.56231,318.979 1105.85131,320.463 1106.07631,322.449 C1106.30031,324.434 1105.37431,326.169 1104.00831,326.323 C1102.64131,326.478 1101.35231,324.993 1101.12731,323.008 Z" id="Path" fill="#F0EFF4"></path>
            <path d="M930.094156,270.008 C929.870156,268.022 930.796156,266.287 932.163156,266.133 C933.529156,265.979 934.818156,267.463 935.043156,269.449 C935.267156,271.434 934.341156,273.169 932.975156,273.323 C931.608156,273.478 930.319156,271.993 930.094156,270.008 Z" id="Path" fill="#F0EFF4"></path>
        </g>
        <path id="Line" d="M304.615293,390.828894 L80.3488747,446.895499 C78.4735925,447.364319 76.5733218,446.224157 76.1045012,444.348875 C75.6356807,442.473593 76.7758431,440.573322 78.6511253,440.104501 L302.917543,384.037897 L299.601206,370.772549 C299.289589,369.52608 300.047436,368.263001 301.293906,367.951384 C301.644283,367.863789 302.010244,367.858975 302.362804,367.937322 L339.849152,376.267621 C341.103388,376.54634 341.8942,377.789045 341.615481,379.043281 C341.506287,379.534657 341.240664,379.977361 340.858483,380.304945 L311.702435,405.295843 C310.726918,406.132 309.258266,406.019027 308.422109,405.043511 C308.187069,404.769297 308.0191,404.444125 307.931506,404.093747 L304.615293,390.828894 Z" fill="#fff" fill-rule="nonzero"></path>
        <path id="Line" d="M1039.38471,479.171106 L1263.65113,423.104501 C1265.52641,422.635681 1267.42668,423.775843 1267.8955,425.651125 C1268.36432,427.526407 1267.22416,429.426678 1265.34887,429.895499 L1041.08246,485.962103 L1044.39867,499.226956 C1044.48626,499.577334 1044.49108,499.943294 1044.41273,500.295855 C1044.13401,501.550091 1042.89131,502.340903 1041.63707,502.062184 L1004.15072,493.731884 C1003.65935,493.62269 1003.21664,493.357067 1002.88906,492.974886 C1002.0529,491.99937 1002.16588,490.530718 1003.14139,489.694561 L1032.29744,464.703662 C1032.57166,464.468622 1032.89683,464.300653 1033.2472,464.213059 C1034.49367,463.901442 1035.75675,464.659289 1036.06837,465.905758 L1039.38471,479.171106 Z" fill="#fff" fill-rule="nonzero"></path>
        <path id="Line" d="M527.384707,607.171106 L535.564023,605.126277 C537.439305,604.657456 539.339576,605.797619 539.808396,607.672901 C540.277217,609.548183 539.137055,611.448454 537.261772,611.917274 L529.082457,613.962103 L532.39867,627.226956 C532.486264,627.577334 532.491079,627.943294 532.412732,628.295855 C532.134013,629.550091 530.891308,630.340903 529.637072,630.062184 L492.150724,621.731884 C491.659349,621.62269 491.216644,621.357067 490.889061,620.974886 C490.052904,619.99937 490.165877,618.530718 491.141393,617.694561 L520.297442,592.703662 C520.571656,592.468622 520.896827,592.300653 521.247205,592.213059 C522.493674,591.901442 523.756753,592.659289 524.068371,593.905758 L527.384707,607.171106 Z M548.903482,609.006847 C547.0282,609.475667 545.12793,608.335505 544.659109,606.460223 C544.190288,604.584941 545.330451,602.68467 547.205733,602.215849 L558.847443,599.305422 C560.722725,598.836601 562.622996,599.976764 563.091816,601.852046 C563.560637,603.727328 562.420475,605.627599 560.545192,606.096419 L548.903482,609.006847 Z M572.186902,603.185992 C570.31162,603.654812 568.41135,602.51465 567.942529,600.639368 C567.473708,598.764086 568.613871,596.863815 570.489153,596.394994 L582.130863,593.484567 C584.006145,593.015746 585.906416,594.155909 586.375236,596.031191 C586.844057,597.906473 585.703895,599.806744 583.828612,600.275564 L572.186902,603.185992 Z M595.470322,597.365137 C593.59504,597.833957 591.69477,596.693795 591.225949,594.818513 C590.757128,592.943231 591.897291,591.04296 593.772573,590.574139 L605.414283,587.663712 C607.289565,587.194891 609.189836,588.335054 609.658656,590.210336 C610.127477,592.085618 608.987315,593.985889 607.112032,594.454709 L595.470322,597.365137 Z M618.753742,591.544282 C616.87846,592.013102 614.97819,590.87294 614.509369,588.997658 C614.040548,587.122376 615.180711,585.222105 617.055993,584.753284 L628.697703,581.842857 C630.572985,581.374036 632.473256,582.514199 632.942076,584.389481 C633.410897,586.264763 632.270735,588.165034 630.395452,588.633854 L618.753742,591.544282 Z M642.037162,585.723427 C640.16188,586.192247 638.26161,585.052085 637.792789,583.176803 C637.323968,581.301521 638.464131,579.40125 640.339413,578.932429 L651.981123,576.022002 C653.856405,575.553181 655.756676,576.693344 656.225496,578.568626 C656.694317,580.443908 655.554155,582.344179 653.678872,582.812999 L642.037162,585.723427 Z M665.320582,579.902572 C663.4453,580.371392 661.54503,579.23123 661.076209,577.355948 C660.607388,575.480666 661.747551,573.580395 663.622833,573.111574 L675.264543,570.201147 C677.139825,569.732326 679.040096,570.872489 679.508916,572.747771 C679.977737,574.623053 678.837575,576.523324 676.962292,576.992144 L665.320582,579.902572 Z M688.604002,574.081717 C686.72872,574.550537 684.82845,573.410375 684.359629,571.535093 C683.890808,569.659811 685.030971,567.75954 686.906253,567.290719 L698.547963,564.380292 C700.423245,563.911471 702.323516,565.051634 702.792336,566.926916 C703.261157,568.802198 702.120995,570.702469 700.245712,571.171289 L688.604002,574.081717 Z M711.887422,568.260862 C710.01214,568.729682 708.11187,567.58952 707.643049,565.714238 C707.174228,563.838956 708.314391,561.938685 710.189673,561.469864 L721.831383,558.559437 C723.706665,558.090616 725.606936,559.230779 726.075756,561.106061 C726.544577,562.981343 725.404415,564.881614 723.529132,565.350434 L711.887422,568.260862 Z M735.170842,562.440007 C733.29556,562.908827 731.39529,561.768665 730.926469,559.893383 C730.457648,558.018101 731.597811,556.11783 733.473093,555.649009 L745.114803,552.738582 C746.990085,552.269761 748.890356,553.409924 749.359177,555.285206 C749.827997,557.160488 748.687835,559.060759 746.812552,559.529579 L735.170842,562.440007 Z" fill="#fff" fill-rule="nonzero"></path>
        <path d="M732.868973,480.304028 C726.305236,488.071235 716.365104,490.237943 710.172286,484.262786 C703.979468,478.221812 704.942433,467.222535 711.469705,459.445498 C718.033442,451.683306 728.010039,449.738359 734.202857,455.835953 C740.395675,461.867729 739.469175,472.552612 732.868973,480.304028 Z M729.561813,477.131779 C734.119964,471.766542 734.532342,464.832589 730.155219,460.569212 C725.778096,456.272955 719.335015,457.329554 714.776865,462.720431 C710.218714,468.139499 709.879266,475.106473 714.256389,479.376253 C718.633512,483.613153 725.003662,482.525207 729.561813,477.131779 Z M745.872009,420.455317 L757.933414,432.454158 C763.607463,438.012423 763.466596,444.867665 757.559232,451.610277 C751.651869,458.400237 745.192533,459.126665 739.518485,453.608154 L727.45708,441.693817 L731.468253,437.028414 L743.302696,448.738921 C747.323164,452.662587 750.783836,452.460785 754.284496,448.438458 C757.821621,444.391121 757.679283,440.780773 753.658815,436.841266 L741.824371,425.08413 L745.872009,420.455317 Z M776.147503,429.535637 L758.865974,412.44968 L751.755258,420.492625 L748.610215,417.336555 L766.879283,396.788807 L770.024327,399.966737 L762.913612,407.902028 L780.195141,425.014598 L776.147503,429.535637 Z M790.372249,413.745413 L769.945675,393.38433 L784.859945,377.007616 L788.004989,380.20706 L777.101892,392.136564 L782.484132,397.550193 L792.840251,386.236523 L795.985294,389.389288 L785.629176,400.690565 L791.238378,406.2493 L802.141474,394.378438 L805.286518,397.484606 L790.372249,413.745413 Z M808.936354,393.55121 L788.50978,373.045855 L796.568591,364.362328 C802.51242,358.014198 807.893794,357.443594 811.687301,361.314252 C814.57296,364.242061 815.043658,368.637008 811.956501,373.519716 L826.69491,374.670885 L821.917967,379.707507 L807.876526,378.406052 L805.068705,381.412851 L812.947527,389.249251 L808.936354,393.55121 Z M799.794649,367.353512 L795.601151,371.855349 L801.988508,378.320272 L806.291402,373.711772 C809.390945,370.407655 809.674236,367.820277 807.599156,365.716812 C805.524075,363.605957 802.566005,364.39148 799.794649,367.353512 Z" id="OUTER" fill="#FFFFFF" fill-rule="nonzero"></path>
        <path d="M1391.08658,313.746164 L1371.24735,288.520444 L1375.23222,284.553311 L1395.07144,309.767068 L1391.08658,313.746164 Z M1400.25506,304.613196 L1380.41584,279.415002 L1385.7773,274.126869 L1410.76983,284.93215 L1395.08739,265.008022 L1399.03603,261.164997 L1418.87526,286.30729 L1413.26022,291.793379 L1388.83618,281.237232 L1404.2037,300.704093 L1400.25506,304.613196 Z M1423.98643,281.339159 L1404.1472,256.212209 L1409.50866,251.043166 L1434.50119,261.998926 L1418.81876,242.131116 L1422.7674,238.375799 L1442.60662,263.446847 L1436.99158,268.808214 L1412.56754,258.106089 L1427.93507,277.517763 L1423.98643,281.339159 Z M1447.71779,258.592246 L1427.87856,233.536541 L1442.69502,219.646486 L1445.74963,223.529173 L1434.91804,233.668324 L1440.14552,240.294677 L1450.43372,230.653425 L1453.48833,234.505027 L1443.20013,244.151035 L1448.64805,251.000183 L1459.47964,240.838527 L1462.53425,244.657709 L1447.71779,258.592246 Z M1466.16015,241.278929 L1446.32092,216.278592 L1454.32688,208.885887 C1460.23173,203.47179 1465.52312,203.862189 1469.20754,208.521677 C1472.01023,212.054814 1472.4253,216.667246 1469.34112,221.136802 L1483.80224,225.014813 L1479.05662,229.361118 L1465.28215,225.421934 L1462.49274,227.999223 L1470.14501,237.57984 L1466.16015,241.278929 Z M1457.46341,212.550052 L1453.29742,216.390769 L1459.50111,224.233994 L1463.77579,220.289289 C1466.855,217.458361 1467.1609,214.846806 1465.14549,212.303971 C1463.13008,209.756104 1460.2166,210.020754 1457.46341,212.550052 Z" id="INNER" fill="#FFFFFF" fill-rule="nonzero"></path>
        <path d="M729.987147,236.3938 L728.018859,207.052057 L747.884578,202.314259 L748.187632,206.831956 L733.677866,210.292406 L734.205867,218.163445 L747.985275,214.877178 L748.288329,219.394875 L734.508921,222.681142 L735.3431,235.116452 L729.987147,236.3938 Z M763.732254,229.055679 C757.597253,230.518823 752.2947,227.430059 751.876048,221.189117 C751.457397,214.948175 756.233775,209.455675 762.320086,208.004143 C768.455087,206.541 773.80633,209.618151 774.224982,215.859094 C774.643634,222.100036 769.915946,227.580923 763.732254,229.055679 Z M763.435449,224.631131 C766.941164,223.795049 769.073404,220.920563 768.820338,217.148053 C768.567272,213.375544 766.025225,211.615834 762.616891,212.428692 C759.208557,213.241549 757.027627,216.127647 757.280693,219.900157 C757.533758,223.672667 759.978424,225.455601 763.435449,224.631131 Z M780.147201,224.43107 L778.828761,204.77676 L784.136024,203.511024 L784.41096,207.609553 C785.607409,204.059179 788.130471,201.848595 791.344043,201.082186 C792.02571,200.919614 792.664934,200.861804 793.109397,200.850442 L793.468688,206.206474 C792.33631,206.287259 791.255746,206.403006 790.135865,206.670088 C785.948483,207.668741 784.573421,210.031412 784.870227,214.45596 L785.454464,223.165335 L780.147201,224.43107 Z M807.755337,197.878027 L813.208671,196.577455 L818.064887,209.236527 L820.853078,194.754331 L826.209032,193.476984 L821.489851,214.571213 L815.744374,215.941459 L810.949346,203.457071 L807.953896,217.799419 L802.111038,219.192889 L794.754977,200.978498 L800.257002,199.666314 L804.811701,212.255337 L807.755337,197.878027 Z M830.03756,202.548287 C829.581417,195.748454 834.054453,190.896131 838.77743,189.769742 C841.601478,189.096232 844.464316,189.738411 846.249185,192.009936 L846.030486,188.749742 L851.337749,187.484007 L852.65619,207.138317 L847.348927,208.404052 L847.130228,205.143859 C845.701525,208.181792 843.013647,210.147768 840.189598,210.821278 C835.466621,211.947667 830.493703,209.348119 830.03756,202.548287 Z M840.53495,193.845923 C837.126616,194.658781 835.211008,197.812837 835.442204,201.259327 C835.6734,204.705817 837.945174,206.86122 841.353508,206.048362 C844.664461,205.258729 847.046401,202.419331 846.787087,198.553673 C846.527773,194.688014 843.894594,193.044678 840.53495,193.845923 Z M859.233832,205.569607 L857.915392,185.915297 L863.222655,184.649562 L863.49759,188.748091 C864.69404,185.197716 867.217101,182.987132 870.430673,182.220723 C871.11234,182.058152 871.751565,182.000341 872.196028,181.988979 L872.555319,187.345012 C871.42294,187.425797 870.342377,187.541543 869.222496,187.808625 C865.035114,188.807279 863.660052,191.169949 863.956857,195.594497 L864.541095,204.303872 L859.233832,205.569607 Z M875.474637,191.711945 C875.018494,184.912113 879.394149,180.083014 884.068436,178.968237 C886.941175,178.283115 889.901393,178.902069 891.689387,181.220168 L890.661503,165.897258 L895.968766,164.631523 L898.093267,196.301975 L892.786004,197.567711 L892.564181,194.260943 C891.138603,197.34545 888.353343,199.334651 885.480604,200.019773 C880.806318,201.13455 875.93078,198.511778 875.474637,191.711945 Z M885.972028,183.009582 C882.563693,183.822439 880.648086,186.976495 880.879281,190.422986 C881.110477,193.869476 883.382251,196.024878 886.790585,195.212021 C890.150229,194.410775 892.483479,191.582989 892.224165,187.717331 C891.964851,183.851673 889.331671,182.208336 885.972028,183.009582 Z M905.836741,171.552682 C903.74305,172.052008 901.981349,170.863302 901.847005,168.860612 C901.712662,166.857922 903.265038,164.926157 905.358729,164.42683 C907.403729,163.939115 909.210997,165.069635 909.34534,167.072325 C909.479684,169.075016 907.881742,171.064967 905.836741,171.552682 Z M904.670909,194.733266 L903.352469,175.078956 L908.708423,173.801608 L910.026863,193.455918 L904.670909,194.733266 Z M916.604505,191.887209 L915.286065,172.232898 L920.642018,170.955551 L920.876338,174.448615 C922.149597,171.305796 924.587774,169.304733 927.557894,168.596386 C932.18349,167.493222 935.369185,169.998494 935.744096,175.587398 L936.518914,187.137798 L931.211651,188.403533 L930.49307,177.691468 C930.264999,174.291552 928.8772,172.777077 926.004461,173.4622 C922.93696,174.193772 921.020055,176.591028 921.29499,180.689557 L921.960459,190.609861 L916.604505,191.887209 Z M940.973498,176.043727 C940.517355,169.243894 944.944825,164.449757 949.619111,163.334981 C952.49185,162.649858 955.403378,163.280425 957.191371,165.598524 L956.978921,162.431478 L962.334875,161.154131 L963.48148,178.24686 C963.943872,185.139841 960.244933,190.47002 953.136122,192.165409 C948.218383,193.338246 944.008362,191.787056 941.684004,187.372868 L946.117193,184.138904 C947.730468,187.539696 949.87857,188.58893 952.848689,187.880583 C956.451785,187.021276 958.55408,184.437848 958.266648,180.153022 L958.138553,178.24348 C956.819728,181.444486 954.092532,183.561796 950.976341,184.30498 C946.496816,185.373308 941.417143,182.657262 940.973498,176.043727 Z M951.522703,167.376325 C948.065678,168.200795 946.146946,171.308276 946.378142,174.754767 C946.606213,178.154683 948.877987,180.310085 952.335012,179.485615 C955.645965,178.695982 957.979215,175.868196 957.723025,172.049112 C957.463711,168.183454 954.882346,166.575079 951.522703,167.376325 Z" id="Forwarding" fill="#fff" fill-rule="nonzero"></path>
    </g>
</svg>