<?xml version="1.0" encoding="UTF-8"?>
<svg viewBox="0 0 1225 551" version="1.1" xmlns="http://www.w3.org/2000/svg" xmlns:xlink="http://www.w3.org/1999/xlink">
    <!-- Generator: Sketch 53.2 (72643) - https://sketchapp.com -->
    <title>exchange</title>
    <desc>Created with Sketch.</desc>
    <defs>
        <linearGradient x1="50.1841971%" y1="89.5933884%" x2="48.11619%" y2="12.9220782%" id="linearGradient-1">
            <stop stop-color="#797585" offset="4.83871%"></stop>
            <stop stop-color="#95919F" offset="100%"></stop>
        </linearGradient>
        <linearGradient x1="50.8421765%" y1="57.7216725%" x2="44.5007782%" y2="-1.17144778%" id="linearGradient-2">
            <stop stop-color="#282530" offset="0.806452%"></stop>
            <stop stop-color="#3A3842" offset="93.75%"></stop>
        </linearGradient>
    </defs>
    <g id="exchange" stroke="none" stroke-width="1" fill="none" fill-rule="evenodd">
        <g id="conveyor" transform="translate(65.966844, 73.000000)">
            <g id="Conveyor" transform="translate(666.000000, 71.000000)" stroke="#282530" stroke-linecap="round" stroke-linejoin="round">
                <polygon id="Path" stroke-width="4" fill="#F0EFF4" points="269.11 27.303 105.764 68.916 0.703 42.415 165.176 0.534"></polygon>
                <polygon id="Path" stroke-width="3" fill="#282530" points="106.387 68.789 107.037 76.815 269.05 33.806 269.05 27.909"></polygon>
            </g>
            <g id="Conveyor_2" transform="translate(501.000000, 113.000000)">
                <polygon id="Path" stroke="#282530" stroke-width="4" fill="#F0EFF4" stroke-linecap="round" stroke-linejoin="round" points="269.337 27.383 105.992 68.997 0.931 42.495 165.404 0.614"></polygon>
                <polygon id="Path" stroke="#282530" stroke-width="3" fill="#282530" stroke-linecap="round" stroke-linejoin="round" points="108.594 68.316 108.594 75.222 270.809 35.11 270.809 27.898"></polygon>
                <path d="M269.489,30.916 C269.265,28.93 270.191,27.196 271.557,27.041 C272.924,26.887 274.213,28.371 274.437,30.357 C274.662,32.342 273.736,34.077 272.369,34.231 C271.003,34.386 269.713,32.901 269.489,30.916 Z" id="Path" fill="#F0EFF4"></path>
            </g>
            <g id="Layer-1" transform="translate(314.000000, 0.000000)">
                <polygon id="Path" stroke="#282530" stroke-width="6" fill="url(#linearGradient-1)" stroke-linecap="round" stroke-linejoin="round" points="138.278 77.753 296.103 41.205 296.103 217.858 138.278 254.406"></polygon>
                <polygon id="Path" stroke="#282530" stroke-width="6" fill="#EBE9F0" stroke-linecap="round" stroke-linejoin="round" points="138.832 254.96 0.389 215.089 0.389 38.989 138.278 77.602"></polygon>
                <polygon id="Path" stroke="#282530" stroke-width="6" fill="#EBE9F0" stroke-linecap="round" stroke-linejoin="round" points="138.832 254.96 0.389 215.089 0.389 38.989 138.278 77.602"></polygon>
                <polygon id="Path" stroke="#282530" stroke-width="6" fill="#F0EEF3" stroke-linecap="round" stroke-linejoin="round" points="293.793 41.205 159.322 0.399 0.139 38.989 138.278 77.954"></polygon>
                <path d="M14.113,219.118 C14.113,219.118 14.09,125.865 14.113,105.56 C14.126,94.154 19.417,91.921 27.902,93.818 C49.017,98.539 80.409,107 105.867,112.53 C116.63,114.868 121.721,122.659 121.766,131.937 C121.89,157.934 121.766,250.497 121.766,250.497 L14.113,219.118 Z" id="Path" fill="url(#linearGradient-2)"></path>
                <polygon id="Path" stroke="#282530" stroke-width="4" fill="#F0EFF4" stroke-linecap="round" stroke-linejoin="round" points="119.163 226.022 15.181 197.727 119.163 171.857"></polygon>
            </g>
            <g id="Conveyor_3" transform="translate(162.000000, 197.000000)">
                <polygon id="Path" stroke="#282530" stroke-width="4" fill="#F0EFF4" stroke-linecap="round" stroke-linejoin="round" points="270.036 27.497 106.691 69.11 1.63 42.608 166.103 0.727"></polygon>
                <polygon id="Path" stroke="#282530" stroke-width="3" fill="#282530" stroke-linecap="round" stroke-linejoin="round" points="106.4 69.11 106.4 76.346 263.738 34.919 263.738 29.022"></polygon>
                <polygon id="Path" stroke="#282530" stroke-width="3" fill="#282530" stroke-linecap="round" stroke-linejoin="round" points="106.84 76.346 0.911 50.364 0.911 42.505 106.966 68.924"></polygon>
                <path d="M104.061,73.008 C103.837,71.022 104.763,69.287 106.13,69.133 C107.496,68.979 108.785,70.463 109.01,72.449 C109.234,74.434 108.308,76.169 106.942,76.323 C105.575,76.478 104.286,74.993 104.061,73.008 Z" id="Path" fill="#F0EFF4"></path>
            </g>
            <g id="Conveyor_4" transform="translate(0.000000, 239.000000)">
                <polygon id="Path" stroke="#282530" stroke-width="4" fill="#F0EFF4" stroke-linecap="round" stroke-linejoin="round" points="268.536 27.275 105.19 68.888 0.13 42.386 164.603 0.505"></polygon>
                <polygon id="Path" stroke="#282530" stroke-width="3" fill="#282530" stroke-linecap="round" stroke-linejoin="round" points="106.185 67.541 106.185 74.446 268.4 34.334 268.4 27.122"></polygon>
                <polygon id="Path" stroke="#282530" stroke-width="3" fill="#282530" stroke-linecap="round" stroke-linejoin="round" points="106.185 74.446 0.13 48.453 0.13 40.594 106.185 67.012"></polygon>
                <path d="M266.061,31.008 C265.837,29.022 266.763,27.287 268.13,27.133 C269.496,26.979 270.785,28.463 271.01,30.449 C271.234,32.434 270.308,34.169 268.942,34.323 C267.575,34.478 266.286,32.993 266.061,31.008 Z" id="Path" fill="#F0EFF4"></path>
            </g>
        </g>
        <g id="conveyor" transform="translate(237.000000, 126.000000)">
            <g id="Conveyor" transform="translate(666.000000, 71.000000)" stroke="#282530" stroke-linecap="round" stroke-linejoin="round">
                <polygon id="Path" stroke-width="4" fill="#F0EFF4" points="269.11 27.303 105.764 68.916 0.703 42.415 165.176 0.534"></polygon>
                <polygon id="Path" stroke-width="3" fill="#282530" points="106.387 68.789 107.037 76.815 269.05 33.806 269.05 27.909"></polygon>
            </g>
            <g id="Conveyor_2" transform="translate(501.000000, 113.000000)">
                <polygon id="Path" stroke="#282530" stroke-width="4" fill="#F0EFF4" stroke-linecap="round" stroke-linejoin="round" points="269.337 27.383 105.992 68.997 0.931 42.495 165.404 0.614"></polygon>
                <polygon id="Path" stroke="#282530" stroke-width="3" fill="#282530" stroke-linecap="round" stroke-linejoin="round" points="108.594 68.316 108.594 75.222 270.809 35.11 270.809 27.898"></polygon>
                <path d="M269.489,30.916 C269.265,28.93 270.191,27.196 271.557,27.041 C272.924,26.887 274.213,28.371 274.437,30.357 C274.662,32.342 273.736,34.077 272.369,34.231 C271.003,34.386 269.713,32.901 269.489,30.916 Z" id="Path" fill="#F0EFF4"></path>
            </g>
            <g id="Layer-1" transform="translate(314.000000, 0.000000)">
                <polygon id="Path" stroke="#282530" stroke-width="6" fill="url(#linearGradient-1)" stroke-linecap="round" stroke-linejoin="round" points="138.278 77.753 296.103 41.205 296.103 217.858 138.278 254.406"></polygon>
                <polygon id="Path" stroke="#282530" stroke-width="6" fill="#EBE9F0" stroke-linecap="round" stroke-linejoin="round" points="138.832 254.96 0.389 215.089 0.389 38.989 138.278 77.602"></polygon>
                <polygon id="Path" stroke="#282530" stroke-width="6" fill="#EBE9F0" stroke-linecap="round" stroke-linejoin="round" points="138.832 254.96 0.389 215.089 0.389 38.989 138.278 77.602"></polygon>
                <polygon id="Path" stroke="#282530" stroke-width="6" fill="#F0EEF3" stroke-linecap="round" stroke-linejoin="round" points="293.793 41.205 159.322 0.399 0.139 38.989 138.278 77.954"></polygon>
                <path d="M14.113,219.118 C14.113,219.118 14.09,125.865 14.113,105.56 C14.126,94.154 19.417,91.921 27.902,93.818 C49.017,98.539 80.409,107 105.867,112.53 C116.63,114.868 121.721,122.659 121.766,131.937 C121.89,157.934 121.766,250.497 121.766,250.497 L14.113,219.118 Z" id="Path" fill="url(#linearGradient-2)"></path>
                <polygon id="Path" stroke="#282530" stroke-width="4" fill="#F0EFF4" stroke-linecap="round" stroke-linejoin="round" points="119.163 226.022 15.181 197.727 119.163 171.857"></polygon>
            </g>
            <g id="Conveyor_3" transform="translate(162.000000, 197.000000)">
                <polygon id="Path" stroke="#282530" stroke-width="4" fill="#F0EFF4" stroke-linecap="round" stroke-linejoin="round" points="270.036 27.497 106.691 69.11 1.63 42.608 166.103 0.727"></polygon>
                <polygon id="Path" stroke="#282530" stroke-width="3" fill="#282530" stroke-linecap="round" stroke-linejoin="round" points="106.4 69.11 106.4 76.346 263.738 34.919 263.738 29.022"></polygon>
                <polygon id="Path" stroke="#282530" stroke-width="3" fill="#282530" stroke-linecap="round" stroke-linejoin="round" points="106.84 76.346 0.911 50.364 0.911 42.505 106.966 68.924"></polygon>
                <path d="M104.061,73.008 C103.837,71.022 104.763,69.287 106.13,69.133 C107.496,68.979 108.785,70.463 109.01,72.449 C109.234,74.434 108.308,76.169 106.942,76.323 C105.575,76.478 104.286,74.993 104.061,73.008 Z" id="Path" fill="#F0EFF4"></path>
            </g>
            <g id="Conveyor_4" transform="translate(0.000000, 239.000000)">
                <polygon id="Path" stroke="#282530" stroke-width="4" fill="#F0EFF4" stroke-linecap="round" stroke-linejoin="round" points="268.536 27.275 105.19 68.888 0.13 42.386 164.603 0.505"></polygon>
                <polygon id="Path" stroke="#282530" stroke-width="3" fill="#282530" stroke-linecap="round" stroke-linejoin="round" points="106.185 67.541 106.185 74.446 268.4 34.334 268.4 27.122"></polygon>
                <polygon id="Path" stroke="#282530" stroke-width="3" fill="#282530" stroke-linecap="round" stroke-linejoin="round" points="106.185 74.446 0.13 48.453 0.13 40.594 106.185 67.012"></polygon>
                <path d="M266.061,31.008 C265.837,29.022 266.763,27.287 268.13,27.133 C269.496,26.979 270.785,28.463 271.01,30.449 C271.234,32.434 270.308,34.169 268.942,34.323 C267.575,34.478 266.286,32.993 266.061,31.008 Z" id="Path" fill="#F0EFF4"></path>
            </g>
        </g>
        <path id="Line" d="M303.615293,242.828894 L79.3488747,298.895499 C77.4735925,299.364319 75.5733218,298.224157 75.1045012,296.348875 C74.6356807,294.473593 75.7758431,292.573322 77.6511253,292.104501 L301.917543,236.037897 L298.601206,222.772549 C298.289589,221.52608 299.047436,220.263001 300.293906,219.951384 C300.644283,219.863789 301.010244,219.858975 301.362804,219.937322 L338.849152,228.267621 C340.103388,228.54634 340.8942,229.789045 340.615481,231.043281 C340.506287,231.534657 340.240664,231.977361 339.858483,232.304945 L310.702435,257.295843 C309.726918,258.132 308.258266,258.019027 307.422109,257.043511 C307.187069,256.769297 307.0191,256.444125 306.931506,256.093747 L303.615293,242.828894 Z" fill="#fff" fill-rule="nonzero"></path>
        <path id="Line" d="M538.384707,440.171106 L762.651125,384.104501 C764.526407,383.635681 766.426678,384.775843 766.895499,386.651125 C767.364319,388.526407 766.224157,390.426678 764.348875,390.895499 L540.082457,446.962103 L543.39867,460.226956 C543.486264,460.577334 543.491079,460.943294 543.412732,461.295855 C543.134013,462.550091 541.891308,463.340903 540.637072,463.062184 L503.150724,454.731884 C502.659349,454.62269 502.216644,454.357067 501.889061,453.974886 C501.052904,452.99937 501.165877,451.530718 502.141393,450.694561 L531.297442,425.703662 C531.571656,425.468622 531.896827,425.300653 532.247205,425.213059 C533.493674,424.901442 534.756753,425.659289 535.068371,426.905758 L538.384707,440.171106 Z" fill="#fff" fill-rule="nonzero"></path>
        <path d="M150.950287,235.174387 C142.190643,237.264592 134.490949,232.521004 133.874453,223.625333 C133.257956,214.729662 140.109005,206.514011 148.819985,204.435418 C157.579629,202.345213 165.327987,207.077188 165.944484,215.972859 C166.56098,224.868531 159.758596,233.072569 150.950287,235.174387 Z M150.621058,230.423819 C156.704145,228.972287 160.978447,223.549336 160.542703,217.261819 C160.106959,210.974303 155.232299,207.734454 149.149213,209.185986 C143.066127,210.637517 138.889154,216.037244 139.324898,222.324761 C139.760642,228.612277 144.537972,231.87535 150.621058,230.423819 Z M172.396965,237.631934 L170.47001,209.82714 L175.823126,208.549792 L176.052294,211.85656 C177.471021,208.772052 180.203196,206.794464 183.074413,206.109342 C187.746223,204.994565 192.627587,207.617337 193.098836,214.41717 C193.570085,221.217002 189.205158,226.046102 184.533348,227.160878 C181.662131,227.846 178.749202,227.215434 176.956059,224.897335 L177.750081,236.354586 L172.396965,237.631934 Z M182.620778,223.119533 C186.027307,222.306676 187.984572,219.141008 187.74572,215.694517 C187.506868,212.248027 185.181641,210.104237 181.775113,210.917094 C178.465914,211.706727 176.138946,214.534514 176.406847,218.400172 C176.674749,222.26583 179.262915,223.920779 182.620778,223.119533 Z M208.675458,221.400146 C202.15439,222.956187 197.565262,219.553517 197.14243,213.452297 C196.713141,207.257929 200.987443,201.834978 207.167859,200.360222 C213.445604,198.862241 217.91158,201.915543 218.32473,207.87704 C218.36669,208.482504 218.359986,209.099581 218.301389,209.681696 L202.631359,213.420841 C203.259529,216.774433 205.325542,218.033188 208.391418,217.301616 C210.873317,216.709392 212.54778,215.17357 212.918229,213.380776 L218.271345,212.103429 C217.455464,216.748485 213.736586,220.192471 208.675458,221.400146 Z M207.403235,204.470363 C204.580683,205.143874 202.727699,206.959015 202.444399,210.009312 L212.858643,207.52429 C212.421656,204.7879 210.274451,203.78524 207.403235,204.470363 Z M224.301497,216.961332 L222.939394,197.307022 L228.243845,196.041286 L228.527886,200.139816 C229.716448,196.589441 232.234599,194.378857 235.446468,193.612448 C236.127774,193.449877 236.76687,193.392066 237.211308,193.380704 L237.582497,198.736736 C236.450298,198.817521 235.369992,198.933268 234.250704,199.20035 C230.065541,200.199004 228.695728,202.561674 229.002362,206.986222 L229.605948,215.695597 L224.301497,216.961332 Z M240.511517,203.10367 C240.040268,196.303838 244.502525,191.451514 249.223,190.325125 C252.045552,189.651615 254.909816,190.293794 256.699731,192.565319 L256.47379,189.305125 L261.778241,188.03939 L263.140344,207.6937 L257.835893,208.959435 L257.609951,205.699242 C256.187997,208.737175 253.504486,210.703151 250.681934,211.376662 C245.961459,212.50305 240.982766,209.903503 240.511517,203.10367 Z M250.989575,194.401306 C247.583047,195.214164 245.674446,198.36822 245.913298,201.81471 C246.15215,205.261201 248.428712,207.416603 251.835241,206.603746 C255.14444,205.814112 257.520072,202.974714 257.252171,199.109056 C256.984269,195.243398 254.347439,193.600061 250.989575,194.401306 Z M266.11233,191.266195 L265.821835,187.074517 L270.980292,185.843619 L270.431578,177.926006 L275.736029,176.66027 L276.284743,184.577883 L283.195129,182.928944 L283.485625,187.120621 L276.575239,188.769561 L277.127181,196.733748 C277.307934,199.341903 278.543669,200.041267 280.928239,199.472267 C282.047527,199.205185 283.202568,198.740194 284.257053,198.251854 L284.579826,202.909273 C283.236581,203.513862 281.783096,203.955377 280.469149,204.268908 C275.018704,205.56948 272.229424,203.867832 271.858235,198.5118 L271.270788,190.035296 L266.11233,191.266195 Z M290.883114,178.159103 C288.790532,178.65843 287.02619,177.469724 286.887397,175.467034 C286.748605,173.464343 288.296689,171.532578 290.389271,171.033252 C292.433188,170.545537 294.242967,171.676057 294.38176,173.678747 C294.520552,175.681437 292.927031,177.671389 290.883114,178.159103 Z M289.768778,201.339687 L288.406675,181.685377 L293.759791,180.40803 L295.121894,200.06234 L289.768778,201.339687 Z M311.574734,196.846569 C305.442983,198.309712 300.133569,195.220948 299.701053,188.980006 C299.268537,182.739064 304.032714,177.246564 310.1158,175.795032 C316.247551,174.331889 321.60563,177.409041 322.038146,183.649983 C322.470662,189.890925 317.75515,195.371813 311.574734,196.846569 Z M311.2681,192.42202 C314.771958,191.585938 316.897812,188.711452 316.636365,184.938943 C316.374919,181.166433 313.828963,179.406723 310.422434,180.219581 C307.015906,181.032439 304.841388,183.918536 305.102834,187.691046 C305.36428,191.463556 307.812907,193.24649 311.2681,192.42202 Z M327.979408,192.221959 L326.617305,172.567649 L331.970421,171.290301 L332.212501,174.783366 C333.478778,171.640547 335.91251,169.639484 338.881056,168.931136 C343.504202,167.827973 346.695461,170.333245 347.082789,175.922148 L347.883266,187.472548 L342.578815,188.738284 L341.836437,178.026219 C341.600813,174.626303 340.209649,173.111828 337.338432,173.796951 C334.272557,174.528522 332.360977,176.925779 332.645017,181.024308 L333.332524,190.944611 L327.979408,192.221959 Z" id="Operation" fill="#fff" fill-rule="nonzero"></path>
        <path d="M693.51954,459.86715 L690.506877,430.525408 L701.176131,427.9591 C709.045309,426.066303 713.270915,428.676962 713.830409,434.126143 C714.256008,438.271246 712.094681,442.274999 707.09207,444.623679 L717.03052,454.211984 L710.706211,455.733189 L701.385343,446.37813 L697.668001,447.272273 L698.830028,458.589803 L693.51954,459.86715 Z M701.82353,432.3372 L696.271656,433.672608 L697.213711,442.847725 L702.910416,441.477479 C707.013976,440.490438 708.68592,438.46565 708.379871,435.484901 C708.073823,432.504153 705.492595,431.454668 701.82353,432.3372 Z M730.189751,451.762621 C723.720611,453.318663 719.01793,449.915992 718.391487,443.814773 C717.755481,437.620405 721.848808,432.197453 727.980008,430.722697 C734.207762,429.224717 738.775633,432.278018 739.38773,438.239515 C739.449896,438.84498 739.463785,439.462057 739.424614,440.044172 L723.879367,443.783316 C724.619453,447.136909 726.727473,448.395664 729.768935,447.664092 C732.23107,447.071867 733.85428,445.536046 734.1649,443.743252 L739.475388,442.465904 C738.814522,447.110961 735.210577,450.554947 730.189751,451.762621 Z M728.352547,434.832839 C725.552472,435.506349 723.760063,437.321491 723.578558,440.371788 L733.909871,437.886766 C733.381565,435.150376 731.2009,434.147716 728.352547,434.832839 Z M760.516807,429.577943 L755.351151,430.820454 C755.116375,429.015673 753.625479,428.467518 751.40473,429.001682 C749.52192,429.45456 748.381939,430.396905 748.501489,431.56126 C748.625821,432.772189 749.605254,433.157021 751.627655,433.100086 L756.512299,432.975105 C759.717263,432.872348 761.767443,434.049567 762.087837,437.170038 C762.479961,440.989122 759.208717,444.782603 753.801675,446.083175 C748.298078,447.406971 744.187697,445.436739 743.564208,441.291511 L748.826419,440.025775 C749.297341,442.203275 751.092246,442.821479 753.602659,442.217642 C755.775131,441.695091 756.982975,440.450076 756.844297,439.099424 C756.729529,437.981644 755.697037,437.56185 754.070417,437.619035 L749.82294,437.686204 C746.217413,437.742138 743.718393,436.529706 743.37887,433.222938 C743.001092,429.543577 745.895226,426.413497 751.10916,425.159374 C756.226539,423.928475 759.7872,425.362791 760.516807,429.577943 Z M770.5927,421.188806 L771.745163,432.413187 C772.055993,435.44051 773.42551,436.733726 775.935923,436.129889 C778.591167,435.491215 780.316628,433.024035 779.881465,428.785783 L778.896372,419.191499 L784.158583,417.925763 L786.176589,437.580074 L780.914378,438.845809 L780.56051,435.399319 C779.447392,438.530526 777.075658,440.485014 774.372136,441.1353 C770.172023,442.145566 767.085027,440.024625 766.578135,435.08776 L765.282211,422.466154 L770.5927,421.188806 Z M792.698396,436.011364 L789.446633,404.340912 L794.757121,403.063564 L798.008884,434.734016 L792.698396,436.011364 Z M800.432652,418.306511 L800.002272,414.114834 L805.119651,412.883935 L804.306711,404.966322 L809.568922,403.700587 L810.381863,411.6182 L817.23722,409.96926 L817.667601,414.160938 L810.812243,415.809877 L811.629966,423.774065 C811.897758,426.38222 813.156832,427.081584 815.522413,426.512583 C816.632788,426.245502 817.772312,425.780511 818.8105,425.29217 L819.2887,429.94959 C817.965632,430.554178 816.526881,430.995694 815.223397,431.309225 C809.816354,432.609797 806.970287,430.908149 806.420357,425.552116 L805.550032,417.075613 L800.432652,418.306511 Z" id="Result" fill="#fff" fill-rule="nonzero"></path>
    </g>
</svg>